<svg width="1200" height="300" viewBox="0 0 1200 300" xmlns="http://www.w3.org/2000/svg">
  <defs><linearGradient id="bg" x1="0" y1="0" x2="1" y2="1"><stop offset="0%" stop-color="#050b14"/><stop offset="100%" stop-color="#0b1023"/></linearGradient></defs>
  <rect width="1200" height="300" rx="22" fill="url(#bg)"/>
  <text x="48" y="68" font-family="monospace" font-size="15" letter-spacing="3" fill="#67e8f9">ENGINEERING.RUNTIME</text>
  <text x="48" y="98" font-family="monospace" font-size="12" fill="#64748b">public stack signal · no internal source exposure</text>

  <g font-family="monospace" text-anchor="middle">
    <g><rect x="55" y="135" width="155" height="76" rx="13" fill="#07111f" stroke="#3178c6"/><text x="132" y="168" font-size="15" fill="#f8fafc">TypeScript</text><text x="132" y="191" font-size="11" fill="#64748b">APPLICATION</text></g>
    <g><rect x="242" y="135" width="155" height="76" rx="13" fill="#07111f" stroke="#61dafb"/><text x="319" y="168" font-size="15" fill="#f8fafc">React</text><text x="319" y="191" font-size="11" fill="#64748b">INTERFACE</text></g>
    <g><rect x="429" y="135" width="155" height="76" rx="13" fill="#07111f" stroke="#4169e1"/><text x="506" y="168" font-size="15" fill="#f8fafc">PostgreSQL</text><text x="506" y="191" font-size="11" fill="#64748b">DATABASE</text></g>
    <g><rect x="616" y="135" width="155" height="76" rx="13" fill="#07111f" stroke="#3fcf8e"/><text x="693" y="168" font-size="15" fill="#f8fafc">Supabase</text><text x="693" y="191" font-size="11" fill="#64748b">BACKEND</text></g>
    <g><rect x="803" y="135" width="155" height="76" rx="13" fill="#07111f" stroke="#94a3b8"/><text x="880" y="168" font-size="15" fill="#f8fafc">Vercel</text><text x="880" y="191" font-size="11" fill="#64748b">DEPLOYMENT</text></g>
    <g><rect x="990" y="135" width="155" height="76" rx="13" fill="#07111f" stroke="#94a3b8"/><text x="1067" y="168" font-size="15" fill="#f8fafc">GitHub</text><text x="1067" y="191" font-size="11" fill="#64748b">SOURCE</text></g>
  </g>

  <text x="48" y="267" font-family="monospace" font-size="11" fill="#475569">SOURCE CODE REMAINS PRIVATE · PUBLIC PROFILE SURFACES PRODUCT DIRECTION ONLY</text>
</svg>